<?xml version="1.0" encoding="utf-8"?>
<!-- Generator: Adobe Illustrator 16.0.0, SVG Export Plug-In . SVG Version: 6.00 Build 0)  -->
<!DOCTYPE svg PUBLIC "-//W3C//DTD SVG 1.1//EN" "http://www.w3.org/Graphics/SVG/1.1/DTD/svg11.dtd">
<svg version="1.1" id="Layer_1" xmlns="http://www.w3.org/2000/svg" xmlns:xlink="http://www.w3.org/1999/xlink" x="0px" y="0px"
	 width="612px" height="612px" viewBox="0 0 612 612" enable-background="new 0 0 612 612" xml:space="preserve">
<g>
	<path fill-rule="evenodd" clip-rule="evenodd" fill="#FFFFFF" d="M502.869,475.468c13.997,7.75,27.945,15.473,42.002,23.255
		c10.427-15.606,20.74-31.046,31.105-46.561c-12.752-10.044-25.29-19.921-37.93-29.877c5.699-11.352,10.401-22.972,14.43-34.965
		c15.994,1.814,31.769,3.602,47.497,5.386c0.889-2.033,11.01-53.377,10.846-54.984c-15.355-4.328-30.743-8.663-45.979-12.958
		c0.161-6.539,0.446-12.758,0.428-18.978c-0.017-6.216-0.339-12.431-0.535-18.897c15.257-4.387,30.619-8.803,46.137-13.265
		c-3.648-18.354-7.256-36.493-10.916-54.907c-16.03,1.899-31.92,3.781-47.926,5.677c-4.07-12.054-8.89-23.629-14.587-34.885
		c12.641-10.066,25.117-20.002,37.656-29.989c-10.462-15.653-20.775-31.085-31.116-46.557
		c-14.168,7.943-28.085,15.745-42.162,23.637c-8.323-9.566-17.248-18.394-26.772-26.656c7.832-14.148,15.555-28.096,23.334-42.146
		c-15.623-10.437-31.057-20.747-46.569-31.111c-10.041,12.747-19.92,25.286-29.887,37.938c-11.355-5.7-22.972-10.396-34.94-14.419
		c0.915-8.091,1.831-15.982,2.698-23.88c0.876-7.941,1.935-15.866,2.621-23.775c-4.758-1.414-53.158-10.84-54.94-10.692
		c-4.31,15.296-8.633,30.637-12.99,46.109c-12.667-0.801-25.161-0.76-37.775,0.089c-4.519-15.484-8.813-30.881-13.34-46.263
		c-18.453,3.673-36.628,7.292-54.9,10.929c1.914,16.116,3.795,31.958,5.691,47.923c-12.01,4.058-23.58,8.875-34.879,14.577
		c-10.034-12.598-19.973-25.078-29.991-37.659c-15.625,10.441-31.063,20.759-46.561,31.117
		c7.948,14.182,15.777,28.148,23.635,42.168c-9.624,8.371-18.394,17.273-26.67,26.764c-14.078-7.796-28.026-15.52-42.136-23.333
		c-10.406,15.572-20.726,31.016-31.111,46.556c12.72,10.022,25.306,19.939,37.925,29.881c-5.681,11.375-10.4,22.93-14.408,34.963
		c-15.958-1.807-31.792-3.599-47.801-5.41c-3.654,18.37-7.274,36.567-10.922,54.91c15.564,4.384,30.966,8.723,46.486,13.095
		c-0.791,12.65-0.706,25.202,0.062,37.818c-15.534,4.464-30.834,8.862-46.249,13.293c3.709,18.418,7.235,36.624,10.967,54.903
		c16.129-1.914,31.965-3.794,47.891-5.684c4.057,12.09,8.923,23.645,14.566,34.908c-12.66,10.082-25.14,20.022-37.64,29.977
		c10.467,15.659,20.789,31.101,31.119,46.555c14.183-7.952,28.106-15.759,42.143-23.628c8.375,9.531,17.265,18.399,26.794,26.645
		c-7.825,14.135-15.55,28.085-23.336,42.147c15.599,10.423,31.034,20.735,46.567,31.112c10.058-12.767,19.968-25.342,29.89-37.936
		c11.438,5.715,22.99,10.42,34.946,14.407c-1.814,15.982-3.612,31.822-5.404,47.617c3.511,1.155,53.388,10.888,55.021,10.742
		c4.314-15.313,8.636-30.656,12.995-46.134c12.677,0.846,25.176,0.744,37.781-0.06c2.256,7.836,4.461,15.534,6.688,23.226
		c2.218,7.666,4.308,15.371,6.67,23.019c18.406-3.663,36.531-7.27,54.866-10.919c-1.904-16.059-3.789-31.954-5.681-47.927
		c12.062-4.086,23.592-8.881,34.87-14.581c9.989,12.545,19.931,25.028,29.99,37.662c15.595-10.42,31.036-20.738,46.564-31.115
		c-7.916-14.122-15.747-28.091-23.553-42.015c4.619-4.392,9.217-8.585,13.604-12.991C494.187,484.86,498.41,480.195,502.869,475.468
		z"/>
	<path fill-rule="evenodd" clip-rule="evenodd" fill="#211D70" d="M502.869,475.468c-4.459,4.728-8.683,9.393-13.119,13.851
		c-4.387,4.406-8.984,8.6-13.604,12.991c7.806,13.924,15.637,27.893,23.553,42.015c-15.528,10.377-30.97,20.695-46.564,31.115
		c-10.06-12.634-20.001-25.117-29.99-37.662c-11.278,5.7-22.809,10.495-34.87,14.581c1.892,15.973,3.776,31.868,5.681,47.927
		c-18.335,3.649-36.46,7.256-54.866,10.919c-2.362-7.647-4.452-15.353-6.67-23.019c-2.227-7.691-4.432-15.39-6.688-23.226
		c-12.605,0.804-25.104,0.905-37.781,0.06c-4.359,15.478-8.681,30.82-12.995,46.134c-1.634,0.146-51.511-9.587-55.021-10.742
		c1.792-15.795,3.59-31.635,5.404-47.617c-11.957-3.987-23.509-8.692-34.946-14.407c-9.922,12.594-19.832,25.169-29.89,37.936
		c-15.533-10.377-30.968-20.689-46.567-31.112c7.787-14.063,15.511-28.013,23.336-42.147c-9.53-8.245-18.419-17.113-26.794-26.645
		c-14.037,7.869-27.96,15.676-42.143,23.628c-10.33-15.454-20.652-30.896-31.119-46.555c12.5-9.954,24.979-19.895,37.64-29.977
		c-5.644-11.264-10.509-22.818-14.566-34.908c-15.926,1.89-31.762,3.77-47.891,5.684c-3.732-18.279-7.258-36.485-10.967-54.903
		c15.414-4.431,30.715-8.829,46.249-13.293c-0.767-12.616-0.853-25.168-0.062-37.818c-15.52-4.372-30.922-8.711-46.486-13.095
		c3.648-18.343,7.268-36.54,10.922-54.91c16.009,1.812,31.844,3.604,47.801,5.41c4.008-12.034,8.727-23.588,14.408-34.963
		c-12.619-9.942-25.205-19.859-37.925-29.881c10.385-15.54,20.705-30.983,31.111-46.556c14.11,7.813,28.059,15.537,42.136,23.333
		c8.276-9.49,17.046-18.393,26.67-26.764c-7.858-14.02-15.687-27.986-23.635-42.168c15.498-10.358,30.936-20.676,46.561-31.117
		c10.019,12.581,19.958,25.061,29.991,37.659c11.299-5.702,22.869-10.519,34.879-14.577c-1.896-15.965-3.777-31.808-5.691-47.923
		c18.271-3.637,36.447-7.255,54.9-10.929c4.526,15.382,8.821,30.779,13.34,46.263c12.614-0.849,25.108-0.891,37.775-0.089
		c4.357-15.472,8.681-30.813,12.99-46.109c1.782-0.148,50.183,9.278,54.94,10.692c-0.687,7.909-1.745,15.833-2.621,23.775
		c-0.867,7.897-1.783,15.789-2.698,23.88c11.969,4.023,23.585,8.719,34.94,14.419c9.967-12.653,19.846-25.191,29.887-37.938
		c15.513,10.364,30.946,20.675,46.569,31.111c-7.779,14.05-15.502,27.998-23.334,42.146c9.524,8.262,18.449,17.089,26.772,26.656
		c14.077-7.892,27.994-15.694,42.162-23.637c10.341,15.472,20.654,30.904,31.116,46.557c-12.539,9.987-25.016,19.923-37.656,29.989
		c5.697,11.255,10.517,22.831,14.587,34.885c16.006-1.896,31.896-3.778,47.926-5.677c3.66,18.414,7.268,36.553,10.916,54.907
		c-15.518,4.461-30.88,8.877-46.137,13.265c0.196,6.467,0.519,12.682,0.535,18.897c0.019,6.22-0.267,12.438-0.428,18.978
		c15.235,4.295,30.623,8.63,45.979,12.958c0.164,1.607-9.957,52.951-10.846,54.984c-15.729-1.784-31.503-3.571-47.497-5.386
		c-4.028,11.993-8.73,23.613-14.43,34.965c12.64,9.956,25.178,19.833,37.93,29.877c-10.365,15.515-20.679,30.954-31.105,46.561
		C530.814,490.94,516.866,483.218,502.869,475.468z"/>
	<path fill-rule="evenodd" clip-rule="evenodd" d="M555.272,306.684C555.077,169.035,444.302,57.59,306.454,57.458
		C168.052,57.327,58.168,168.819,57.111,304.453C56.033,442.735,167.373,555.43,305.887,555.56
		C443.892,555.687,554.902,444.295,555.272,306.684z"/>
	<path fill-rule="evenodd" clip-rule="evenodd" fill="#FFFFFF" d="M555.272,306.684c-0.37,137.611-111.381,249.003-249.386,248.876
		C167.373,555.43,56.033,442.735,57.111,304.453C58.168,168.819,168.052,57.327,306.454,57.458
		C444.302,57.59,555.077,169.035,555.272,306.684z"/>
	<path fill-rule="evenodd" clip-rule="evenodd" fill="#FFFFFF" d="M306.167,69.836c-129.554-0.152-234.529,104.048-236.603,231.9
		c-1.075,66.262,22.107,123.214,67.997,170.966c45.273,44.821,99.667,69.006,163.422,70.311c67,1.372,124.44-22.337,172.469-68.982
		c44.315-45.3,68.08-99.577,69.321-162.959C545.416,176.32,436.385,69.503,306.167,69.836z"/>
	<path fill-rule="evenodd" clip-rule="evenodd" fill="#211D70" d="M306.167,69.836c130.218-0.333,239.249,106.483,236.606,241.236
		c-1.241,63.382-25.006,117.659-69.321,162.959c-48.029,46.646-105.47,70.354-172.469,68.982
		c-63.755-1.305-118.149-25.489-163.422-70.311c-45.89-47.752-69.071-104.704-67.997-170.966
		C71.638,173.885,176.613,69.684,306.167,69.836z"/>
	<path fill-rule="evenodd" clip-rule="evenodd" d="M192.986,503.012c0.517-0.558,0.91-0.944,1.263-1.365
		c7.309-8.737,14.604-17.486,21.922-26.214c20.493-24.443,40.999-48.878,61.485-73.326c1.86-2.221,3.786-4.417,5.373-6.826
		c3.588-5.445,6.35-11.328,8.463-17.497c1.663-4.849,3-9.813,3.003-14.961c0.044-59.858,0.029-119.716,0.025-179.574
		c0-0.675-0.057-1.35-0.093-2.135c-9.119,0-18.082,0-27.216,0c-0.099,0.791-0.233,1.52-0.275,2.254
		c-0.086,1.518-0.089,3.041-0.187,4.557c-0.343,5.368-0.728,10.733-1.063,16.101c-0.228,3.652-0.371,7.308-0.598,10.959
		c-0.334,5.368-0.729,10.732-1.063,16.101c-0.227,3.651-0.369,7.308-0.595,10.959c-0.336,5.437-0.729,10.871-1.067,16.309
		c-0.223,3.581-0.367,7.168-0.59,10.75c-0.338,5.438-0.732,10.872-1.071,16.309c-0.222,3.582-0.365,7.168-0.587,10.75
		c-0.339,5.438-0.934,10.869-1.012,16.31c-0.068,4.667-1.43,8.708-4.47,12.143c-1.64,1.853-3.428,3.649-5.415,5.11
		c-5.792,4.256-11.706,8.347-17.592,12.471c-15.847,11.103-31.709,22.184-47.558,33.284c-21.683,15.188-43.358,30.382-65.035,45.574
		c-1.969,1.382-3.923,2.784-6.01,4.265C133.314,457.857,159.862,483.673,192.986,503.012z"/>
	<path fill-rule="evenodd" clip-rule="evenodd" d="M318.678,181.077c0,0.952,0,1.699,0,2.447c0,59.71-0.001,119.421,0.01,179.131
		c0.001,1.309,0.095,2.625,0.265,3.922c0.875,6.629,2.992,12.892,5.813,18.917c2.048,4.38,4.153,8.771,7.276,12.51
		c14.329,17.169,28.718,34.291,43.084,51.432c14.278,17.035,28.553,34.078,42.834,51.111c0.604,0.721,1.27,1.389,1.935,2.109
		c16.378-9.546,31.176-20.804,44.582-33.896c13.454-13.137,25.108-27.699,35.001-43.79c-0.541-0.442-0.938-0.814-1.383-1.126
		c-18.224-12.763-36.455-25.519-54.682-38.282c-19.075-13.359-38.148-26.724-57.217-40.092
		c-7.242-5.076-14.483-10.153-21.702-15.263c-2.898-2.052-5.414-4.522-7.411-7.469c-1.325-1.953-2.501-4.026-2.711-6.43
		c-0.316-3.571-0.516-7.151-0.733-10.73c-0.319-5.233-0.594-10.469-0.919-15.703c-0.368-5.988-0.783-11.973-1.155-17.961
		c-0.336-5.37-0.635-10.742-0.948-16.114c-0.242-4.131-0.485-8.263-0.724-12.394c-0.197-3.445-0.364-6.891-0.589-10.334
		c-0.337-5.16-0.734-10.315-1.061-15.476c-0.334-5.233-0.612-10.468-0.917-15.703c-0.3-5.165-0.59-10.331-0.912-15.494
		c-0.108-1.76-0.306-3.515-0.466-5.322C336.804,181.077,327.894,181.077,318.678,181.077z"/>
	<path fill-rule="evenodd" clip-rule="evenodd" d="M381.302,334.264c0-1.146,0-1.899,0-2.654c0-11.831,0.014-23.66-0.02-35.491
		c-0.004-1.707,0.311-3.292,1.108-4.786c1.349-2.521,3.37-3.924,6.315-3.943c3.023-0.02,5.118,1.371,6.477,3.995
		c0.775,1.496,1.155,3.065,1.153,4.774c-0.025,15.428-0.016,30.855-0.016,46.281c0,0.829,0,1.657,0,2.527
		c7.484,5.213,14.867,10.492,22.764,15.882c0-1.303,0-2.108,0-2.916c0-20.617,0-41.233,0-61.849c0-0.623-0.018-1.247,0.007-1.868
		c0.184-4.878,4.647-8.014,9.324-6.565c1.854,0.574,3.154,1.734,3.649,3.616c0.26,0.985,0.362,2.037,0.362,3.059
		c0.021,24.49,0.015,48.981,0.015,73.472c0,0.824,0,1.649,0,2.484c10.008,7.003,19.937,13.952,30.144,21.094
		c0.044-1.007,0.093-1.606,0.093-2.207c0.003-34.106,0.008-68.215-0.003-102.321c-0.001-6.517-4.126-10.656-10.615-10.659
		c-30.58-0.008-61.157-0.004-91.737,0c-0.669,0-1.339,0.059-2.122,0.094c0.183,3.458,0.326,6.756,0.533,10.052
		c0.329,5.236,0.718,10.468,1.042,15.705c0.23,3.722,0.453,7.447,0.572,11.175c0.108,3.381,1.507,6.128,3.887,8.406
		c1.546,1.478,3.122,2.955,4.838,4.221c3.502,2.584,7.107,5.028,10.678,7.521C380.13,333.629,380.552,333.831,381.302,334.264z"/>
	<path fill-rule="evenodd" clip-rule="evenodd" d="M150.52,391.334c0.808-0.528,1.32-0.843,1.81-1.184
		c8.832-6.188,17.639-12.411,26.518-18.528c1.415-0.975,1.954-1.971,1.95-3.696c-0.059-24.42-0.041-48.841-0.038-73.26
		c0-0.761-0.032-1.527,0.048-2.281c0.266-2.494,1.957-4.444,4.41-4.854c4.528-0.76,7.742,1.151,8.785,5.739
		c0.165,0.728,0.109,1.512,0.109,2.27c0.005,20.823,0.004,41.646,0.004,62.468c0,0.797,0,1.594,0,2.858
		c7.853-5.497,15.297-10.706,22.765-15.933c0-0.834,0-1.594,0-2.353c0-7.054,0-14.111,0-21.168c0-8.509,0.021-17.018-0.014-25.526
		c-0.009-2.248,0.664-4.221,2.026-5.957c2.813-3.581,8.443-3.445,11.112,0.251c1.245,1.724,1.908,3.63,1.905,5.793
		c-0.021,11.967-0.012,23.936-0.006,35.902c0,0.72,0.063,1.439,0.102,2.262c0.397-0.178,0.597-0.229,0.756-0.341
		c4.02-2.813,8.118-5.525,12.019-8.497c2.07-1.576,3.905-3.509,5.64-5.464c1.435-1.616,2.21-3.593,2.294-5.859
		c0.139-3.793,0.466-7.577,0.698-11.367c0.32-5.238,0.63-10.477,0.935-15.716c0.203-3.499,0.386-7,0.585-10.628
		c-0.696-0.031-1.234-0.077-1.772-0.077c-30.784-0.003-61.568-0.011-92.353,0.024c-1.286,0.001-2.62,0.247-3.849,0.639
		c-3.994,1.274-6.437,5.083-6.437,9.858c-0.003,34.105-0.001,68.21-0.001,102.314C150.52,389.687,150.52,390.351,150.52,391.334z"/>
	<path fill-rule="evenodd" clip-rule="evenodd" d="M480.837,181.142c-42.863,0-85.613,0-128.512,0
		c0.447,7.218,0.884,14.281,1.321,21.305c2.655,0.454,125.718,0.339,127.19-0.097C480.837,195.329,480.837,188.299,480.837,181.142z
		"/>
	<path fill-rule="evenodd" clip-rule="evenodd" d="M132.246,181.132c0.043,7.293-0.074,14.379,0.072,21.459
		c42.502,0,84.756,0,126.986,0c0.117-0.294,0.25-0.482,0.262-0.678c0.412-6.879,0.813-13.759,1.222-20.782
		C217.957,181.132,175.231,181.132,132.246,181.132z"/>
	<path fill-rule="evenodd" clip-rule="evenodd" d="M258.782,214.343c-39.889,0-79.599,0-119.588,0c0.325,0.55,0.5,0.898,0.722,1.213
		c4.019,5.704,8.08,11.381,12.036,17.129c0.718,1.043,1.538,1.168,2.614,1.167c33.682-0.012,67.364-0.009,101.046-0.016
		c0.6,0,1.2-0.076,1.965-0.128C257.978,227.271,258.371,220.951,258.782,214.343z"/>
	<path fill-rule="evenodd" clip-rule="evenodd" d="M474.045,214.363c-40.078,0-79.794,0-119.693,0
		c0.497,6.574,0.684,13.006,1.302,19.479c1.053,0,1.808,0,2.564,0c19.227,0,38.454,0,57.68,0c14.179,0,28.357-0.022,42.536,0.034
		c1.416,0.006,2.256-0.444,3.034-1.598c2.12-3.153,4.369-6.219,6.558-9.327C469.971,220.191,471.9,217.423,474.045,214.363z"/>
	<path fill-rule="evenodd" clip-rule="evenodd" d="M356.719,252.526c0.885,0,1.631,0,2.376,0c30.71,0,61.419,0,92.128,0
		c0.554,0,1.112,0.044,1.659-0.019c1.33-0.155,2.608-0.5,3.439-1.659c1.697-2.373,1.172-6.854-2.345-7.874
		c-0.85-0.247-1.76-0.402-2.641-0.403c-31.194-0.021-62.386-0.018-93.58-0.01c-0.524,0-1.05,0.102-1.649,0.163
		C356.313,246.037,356.509,249.188,356.719,252.526z"/>
	<path fill-rule="evenodd" clip-rule="evenodd" d="M257.017,242.554c-1.084,0-1.899,0-2.714,0c-30.558,0-61.117,0-91.675,0
		c-0.553,0-1.116-0.061-1.657,0.017c-1.895,0.274-3.657,0.796-4.552,2.749c-1.746,3.808,0.423,7.196,4.687,7.197
		c31.25,0.016,62.5,0.009,93.75,0.002c0.519,0,1.039-0.1,1.583-0.156C256.631,249.102,256.813,246.005,257.017,242.554z"/>
	<path fill-rule="evenodd" clip-rule="evenodd" d="M255.947,260.103c-0.816-0.044-1.422-0.105-2.027-0.106
		c-31.111-0.004-62.222-0.004-93.333-0.003c-0.415,0-0.835-0.032-1.244,0.024c-1.812,0.251-2.915,1.516-2.84,3.224
		c0.072,1.655,1.141,2.765,2.889,2.968c0.41,0.047,0.829,0.018,1.243,0.018c30.973,0,61.946,0,92.919,0c0.665,0,1.331,0,2.02,0
		C255.708,264.044,255.823,262.14,255.947,260.103z"/>
	<path fill-rule="evenodd" clip-rule="evenodd" d="M357.465,266.228c0.928,0,1.544,0,2.162,0c30.922,0,61.845,0,92.767,0
		c0.482,0,0.975,0.035,1.452-0.027c1.728-0.229,2.746-1.382,2.753-3.07c0.006-1.697-0.978-2.839-2.723-3.1
		c-0.474-0.071-0.966-0.036-1.45-0.036c-31.06-0.001-62.12-0.002-93.181,0.003c-0.602,0-1.202,0.07-1.78,0.105
		C357.465,262.147,357.465,264.052,357.465,266.228z"/>
	<path fill-rule="evenodd" clip-rule="evenodd" fill="#DA471F" d="M192.986,503.012c-33.124-19.339-59.672-45.154-79.964-77.694
		c2.087-1.48,4.041-2.883,6.01-4.265c21.677-15.192,43.353-30.387,65.035-45.574c15.849-11.101,31.71-22.182,47.558-33.284
		c5.887-4.124,11.8-8.215,17.592-12.471c1.987-1.461,3.775-3.258,5.415-5.11c3.04-3.435,4.402-7.476,4.47-12.143
		c0.079-5.44,0.673-10.872,1.012-16.31c0.223-3.581,0.365-7.168,0.587-10.75c0.339-5.437,0.733-10.871,1.071-16.309
		c0.223-3.582,0.367-7.169,0.59-10.75c0.338-5.438,0.731-10.872,1.067-16.309c0.226-3.652,0.368-7.309,0.595-10.959
		c0.334-5.368,0.729-10.732,1.063-16.101c0.227-3.651,0.37-7.307,0.598-10.959c0.335-5.367,0.72-10.733,1.063-16.101
		c0.097-1.516,0.1-3.039,0.187-4.557c0.042-0.734,0.176-1.464,0.275-2.254c9.134,0,18.098,0,27.216,0
		c0.036,0.785,0.093,1.459,0.093,2.135c0.003,59.858,0.019,119.716-0.025,179.574c-0.003,5.147-1.34,10.112-3.003,14.961
		c-2.113,6.169-4.875,12.052-8.463,17.497c-1.587,2.409-3.513,4.605-5.373,6.826c-20.486,24.448-40.992,48.883-61.485,73.326
		c-7.318,8.728-14.613,17.477-21.922,26.214C193.896,502.067,193.503,502.454,192.986,503.012z"/>
	<path fill-rule="evenodd" clip-rule="evenodd" fill="#DA471F" d="M318.678,181.077c9.216,0,18.126,0,27.27,0
		c0.16,1.807,0.357,3.562,0.466,5.322c0.322,5.163,0.612,10.329,0.912,15.494c0.305,5.235,0.583,10.47,0.917,15.703
		c0.326,5.161,0.724,10.316,1.061,15.476c0.225,3.443,0.392,6.89,0.589,10.334c0.238,4.131,0.481,8.263,0.724,12.394
		c0.313,5.372,0.612,10.744,0.948,16.114c0.372,5.988,0.787,11.974,1.155,17.961c0.325,5.233,0.6,10.469,0.919,15.703
		c0.218,3.579,0.417,7.159,0.733,10.73c0.21,2.403,1.386,4.477,2.711,6.43c1.997,2.946,4.513,5.417,7.411,7.469
		c7.219,5.109,14.46,10.187,21.702,15.263c19.068,13.368,38.142,26.732,57.217,40.092c18.227,12.764,36.458,25.52,54.682,38.282
		c0.444,0.312,0.842,0.684,1.383,1.126c-9.893,16.091-21.547,30.653-35.001,43.79c-13.406,13.093-28.204,24.351-44.582,33.896
		c-0.665-0.721-1.33-1.389-1.935-2.109c-14.281-17.033-28.556-34.076-42.834-51.111c-14.366-17.141-28.755-34.263-43.084-51.432
		c-3.123-3.739-5.229-8.13-7.276-12.51c-2.82-6.025-4.938-12.288-5.813-18.917c-0.17-1.297-0.264-2.613-0.265-3.922
		c-0.011-59.709-0.01-119.42-0.01-179.131C318.678,182.775,318.678,182.028,318.678,181.077z"/>
	<path fill-rule="evenodd" clip-rule="evenodd" fill="#FFFFFF" d="M381.302,334.264c-0.75-0.433-1.172-0.635-1.552-0.9
		c-3.57-2.493-7.176-4.938-10.678-7.521c-1.716-1.266-3.292-2.743-4.838-4.221c-2.38-2.278-3.778-5.025-3.887-8.406
		c-0.119-3.728-0.342-7.453-0.572-11.175c-0.324-5.236-0.713-10.469-1.042-15.705c-0.207-3.295-0.351-6.594-0.533-10.052
		c0.783-0.036,1.453-0.094,2.122-0.094c30.58-0.004,61.157-0.008,91.737,0c6.489,0.002,10.614,4.142,10.615,10.659
		c0.011,34.106,0.006,68.214,0.003,102.321c0,0.601-0.049,1.2-0.093,2.207c-10.207-7.142-20.136-14.091-30.144-21.094
		c0-0.835,0-1.66,0-2.484c0-24.49,0.006-48.981-0.015-73.472c0-1.022-0.103-2.074-0.362-3.059c-0.495-1.881-1.796-3.042-3.649-3.616
		c-4.677-1.449-9.141,1.687-9.324,6.565c-0.024,0.622-0.007,1.245-0.007,1.868c0,20.616,0,41.232,0,61.849c0,0.808,0,1.613,0,2.916
		c-7.896-5.39-15.279-10.669-22.764-15.882c0-0.87,0-1.698,0-2.527c0-15.426-0.01-30.854,0.016-46.281
		c0.002-1.709-0.378-3.278-1.153-4.774c-1.358-2.624-3.453-4.014-6.477-3.995c-2.945,0.019-4.967,1.421-6.315,3.943
		c-0.798,1.494-1.112,3.079-1.108,4.786c0.033,11.831,0.02,23.66,0.02,35.491C381.302,332.364,381.302,333.118,381.302,334.264z"/>
	<path fill-rule="evenodd" clip-rule="evenodd" fill="#FFFFFF" d="M150.52,391.334c0-0.983,0-1.647,0-2.309
		c0-34.104-0.002-68.209,0.001-102.314c0-4.776,2.443-8.584,6.437-9.858c1.229-0.392,2.563-0.638,3.849-0.639
		c30.784-0.035,61.568-0.028,92.353-0.024c0.539,0,1.077,0.046,1.772,0.077c-0.199,3.628-0.383,7.129-0.585,10.628
		c-0.304,5.239-0.614,10.478-0.935,15.716c-0.232,3.79-0.559,7.574-0.698,11.367c-0.084,2.267-0.859,4.243-2.294,5.859
		c-1.735,1.955-3.57,3.888-5.64,5.464c-3.9,2.972-7.999,5.684-12.019,8.497c-0.159,0.111-0.358,0.163-0.756,0.341
		c-0.039-0.822-0.101-1.542-0.102-2.262c-0.006-11.967-0.015-23.936,0.006-35.902c0.003-2.163-0.66-4.069-1.905-5.793
		c-2.669-3.696-8.3-3.833-11.112-0.251c-1.362,1.735-2.036,3.709-2.026,5.957c0.036,8.509,0.014,17.018,0.014,25.526
		c0,7.057,0,14.114,0,21.168c0,0.759,0,1.519,0,2.353c-7.468,5.227-14.912,10.436-22.765,15.933c0-1.265,0-2.062,0-2.858
		c0-20.822,0.001-41.645-0.004-62.468c0-0.758,0.056-1.542-0.109-2.27c-1.043-4.587-4.257-6.499-8.785-5.739
		c-2.454,0.411-4.145,2.36-4.41,4.854c-0.081,0.754-0.048,1.521-0.048,2.281c-0.002,24.419-0.021,48.84,0.038,73.26
		c0.004,1.726-0.535,2.722-1.95,3.696c-8.879,6.117-17.686,12.341-26.518,18.528C151.84,390.491,151.328,390.806,150.52,391.334z"/>
	<path fill-rule="evenodd" clip-rule="evenodd" fill="#FFFFFF" d="M480.837,181.142c0,7.157,0,14.187,0,21.208
		c-1.473,0.436-124.535,0.551-127.19,0.097c-0.438-7.023-0.874-14.087-1.321-21.305
		C395.224,181.142,437.974,181.142,480.837,181.142z"/>
	<path fill-rule="evenodd" clip-rule="evenodd" fill="#FFFFFF" d="M132.246,181.132c42.985,0,85.71,0,128.542,0
		c-0.409,7.022-0.81,13.903-1.222,20.782c-0.012,0.196-0.145,0.384-0.262,0.678c-42.229,0-84.483,0-126.986,0
		C132.172,195.512,132.289,188.425,132.246,181.132z"/>
	<path fill-rule="evenodd" clip-rule="evenodd" fill="#FFFFFF" d="M258.782,214.343c-0.411,6.608-0.804,12.928-1.205,19.366
		c-0.765,0.052-1.365,0.128-1.965,0.128c-33.682,0.006-67.364,0.003-101.046,0.016c-1.077,0-1.896-0.125-2.614-1.167
		c-3.957-5.748-8.017-11.425-12.036-17.129c-0.222-0.314-0.397-0.663-0.722-1.213C179.183,214.343,218.894,214.343,258.782,214.343z
		"/>
	<path fill-rule="evenodd" clip-rule="evenodd" fill="#FFFFFF" d="M474.045,214.363c-2.145,3.06-4.074,5.829-6.02,8.588
		c-2.188,3.107-4.438,6.174-6.558,9.327c-0.778,1.154-1.618,1.604-3.034,1.598c-14.179-0.056-28.357-0.034-42.536-0.034
		c-19.226,0-38.453,0-57.68,0c-0.757,0-1.512,0-2.564,0c-0.618-6.473-0.805-12.906-1.302-19.479
		C394.251,214.363,433.967,214.363,474.045,214.363z"/>
	<path fill-rule="evenodd" clip-rule="evenodd" fill="#FFFFFF" d="M356.719,252.526c-0.21-3.337-0.405-6.489-0.612-9.801
		c0.6-0.062,1.125-0.163,1.649-0.163c31.194-0.008,62.386-0.011,93.58,0.01c0.881,0,1.791,0.156,2.641,0.403
		c3.517,1.02,4.042,5.5,2.345,7.874c-0.831,1.159-2.109,1.503-3.439,1.659c-0.547,0.063-1.105,0.019-1.659,0.019
		c-30.709,0-61.418,0-92.128,0C358.35,252.526,357.604,252.526,356.719,252.526z"/>
	<path fill-rule="evenodd" clip-rule="evenodd" fill="#FFFFFF" d="M257.017,242.554c-0.203,3.451-0.386,6.548-0.578,9.81
		c-0.543,0.056-1.063,0.156-1.583,0.156c-31.25,0.006-62.5,0.013-93.75-0.002c-4.264-0.001-6.433-3.389-4.687-7.197
		c0.895-1.952,2.657-2.474,4.552-2.749c0.542-0.078,1.104-0.017,1.657-0.017c30.558,0,61.117,0,91.675,0
		C255.118,242.554,255.932,242.554,257.017,242.554z"/>
	<path fill-rule="evenodd" clip-rule="evenodd" fill="#FFFFFF" d="M255.947,260.103c-0.124,2.038-0.239,3.942-0.372,6.125
		c-0.689,0-1.355,0-2.02,0c-30.974,0-61.946,0-92.919,0c-0.415,0-0.833,0.03-1.243-0.018c-1.748-0.204-2.817-1.313-2.889-2.968
		c-0.075-1.708,1.028-2.972,2.84-3.224c0.409-0.056,0.829-0.024,1.244-0.024c31.112,0,62.223-0.001,93.333,0.003
		C254.525,259.997,255.13,260.059,255.947,260.103z"/>
	<path fill-rule="evenodd" clip-rule="evenodd" fill="#FFFFFF" d="M357.465,266.228c0-2.176,0-4.081,0-6.125
		c0.578-0.035,1.179-0.105,1.78-0.105c31.061-0.005,62.121-0.004,93.181-0.003c0.484,0,0.977-0.035,1.45,0.036
		c1.745,0.261,2.729,1.403,2.723,3.1c-0.007,1.688-1.025,2.841-2.753,3.07c-0.478,0.063-0.97,0.027-1.452,0.027
		c-30.922,0.001-61.845,0-92.767,0C359.009,266.228,358.393,266.228,357.465,266.228z"/>
</g>
</svg>
